<svg width="350" height="200" viewBox="0 0 4725 2615" fill="none" xmlns="http://www.w3.org/2000/svg">
<rect width="472" height="261" rx="120" fill="#29685F"/>
<path d="M509.756 1288.11C519.999 1282 519.999 1267.75 522.56 1255.52C519.999 1249.41 512.317 1259.6 514.878 1247.38C512.317 1241.27 509.756 1255.52 507.195 1257.56C494.39 1255.52 504.634 1243.3 507.195 1237.19C519.999 1235.16 519.999 1241.27 525.121 1245.34C535.365 1233.12 517.438 1229.05 509.756 1227.01C578.9 980.562 686.458 750.409 755.603 499.888C696.702 546.733 668.532 618.02 612.192 668.939C591.705 668.939 545.608 685.233 519.999 662.829C519.999 642.461 491.829 642.461 494.39 615.983C499.512 613.946 502.073 609.873 512.317 611.91C586.583 544.697 648.045 465.263 737.676 408.234C745.359 408.234 755.603 410.271 758.164 406.197C806.821 422.491 829.869 453.043 822.186 497.851C842.673 505.998 837.552 534.513 845.234 546.733C842.673 552.844 842.673 560.991 834.991 563.027C845.234 567.101 837.552 583.395 847.795 587.469C834.991 636.351 811.942 677.086 804.26 730.042C768.407 793.181 753.042 872.615 722.311 939.828C724.872 952.048 717.189 960.195 719.75 970.379C699.263 996.857 694.141 1023.33 689.019 1055.92C668.532 1102.77 642.923 1153.69 637.801 1202.57C617.314 1231.08 609.631 1294.22 596.827 1322.74C596.827 1328.85 589.144 1328.85 586.583 1332.92C594.266 1345.14 584.022 1359.4 576.339 1367.55C576.339 1426.61 537.926 1495.86 535.365 1569.19C530.243 1573.26 530.243 1579.37 522.56 1579.37C522.56 1689.35 466.22 1772.86 509.756 1860.44C509.756 1888.96 479.025 1874.7 458.538 1878.77C440.611 1860.44 435.49 1833.96 412.441 1831.93C384.271 1756.57 389.393 1650.66 417.563 1585.48C427.807 1561.04 420.124 1530.49 430.368 1504.01C448.294 1453.09 455.977 1394.02 476.464 1345.14C484.147 1341.07 489.269 1334.96 499.512 1330.88C502.073 1324.77 494.39 1326.81 491.829 1322.74C507.195 1314.59 509.756 1306.44 509.756 1288.11ZM719.75 656.718C722.311 646.534 722.311 664.865 719.75 656.718V656.718ZM689.019 746.336C686.458 738.189 704.385 736.152 691.58 732.078C694.141 738.189 678.775 742.262 689.019 746.336ZM678.775 785.034C681.336 780.96 686.458 762.63 681.336 760.593C678.775 766.703 665.971 782.997 678.775 785.034ZM663.41 797.254C671.093 799.291 681.336 791.144 673.654 787.071C671.093 793.181 663.41 793.181 663.41 797.254ZM706.945 805.401C712.067 801.328 712.067 793.181 704.385 793.181C704.385 797.254 699.263 805.401 706.945 805.401ZM658.288 835.953C648.045 833.916 650.606 850.21 653.166 848.173C653.166 844.1 660.849 844.1 658.288 835.953C665.971 840.026 673.654 823.732 660.849 823.732C653.166 823.732 658.288 833.916 658.288 835.953ZM683.897 844.1C691.58 835.953 683.897 862.431 683.897 844.1V844.1ZM681.336 870.578C683.897 870.578 689.019 862.431 681.336 860.394C681.336 862.431 673.654 870.578 681.336 870.578ZM676.215 878.725C673.654 876.688 678.775 880.761 676.215 878.725V878.725ZM635.24 888.909C640.362 878.725 640.362 897.056 635.24 888.909V888.909ZM668.532 905.203H665.971C668.532 907.239 665.971 907.239 663.41 907.239V913.35C671.093 913.35 668.532 909.276 668.532 905.203C673.654 903.166 673.654 901.129 676.215 897.056C668.532 897.056 671.093 901.129 668.532 905.203ZM663.41 927.607C663.41 925.57 663.41 923.533 665.971 925.57C665.971 921.497 665.971 919.46 660.849 919.46C660.849 923.533 660.849 927.607 663.41 927.607ZM653.166 952.048C653.166 945.938 668.532 935.754 653.166 933.717C658.288 941.864 645.484 947.974 653.166 952.048ZM668.532 937.791C676.215 927.607 673.654 945.938 668.532 937.791V937.791ZM619.875 950.011C624.996 939.827 624.996 958.158 619.875 950.011V950.011ZM642.923 994.82C637.801 980.563 660.849 966.305 645.484 958.158C650.606 974.452 627.557 986.673 642.923 994.82ZM612.192 1078.33C614.753 1055.92 640.362 1021.3 630.118 1002.97C627.557 1021.3 601.948 1060 612.192 1078.33ZM512.317 1371.62C489.269 1442.91 471.342 1504.01 461.099 1581.41C443.172 1640.47 430.368 1693.43 432.929 1740.27C453.416 1611.96 486.708 1504.01 512.317 1371.62C543.048 1314.59 553.291 1224.97 586.583 1161.83C584.022 1129.25 614.753 1110.91 604.509 1080.36C573.778 1172.02 537.926 1265.71 512.317 1371.62ZM568.657 1088.51C576.339 1090.55 563.535 1094.62 568.657 1100.73C584.022 1098.69 571.217 1090.55 581.461 1084.44C573.778 1082.4 568.657 1084.44 568.657 1088.51ZM635.24 1090.55C640.362 1082.4 640.362 1100.73 635.24 1090.55V1090.55ZM555.852 1121.1C555.852 1119.06 555.852 1117.03 553.291 1117.03V1127.21C566.096 1129.25 573.778 1112.95 560.974 1110.91C560.974 1114.99 560.974 1119.06 555.852 1121.1ZM545.608 1135.36C548.169 1125.17 543.048 1149.61 545.608 1135.36V1135.36ZM530.243 1206.64C527.682 1212.75 517.438 1210.72 519.999 1220.9C537.926 1214.79 543.048 1196.46 540.487 1174.05C555.852 1167.94 545.608 1157.76 558.413 1149.61C555.852 1149.61 555.852 1145.54 553.291 1145.54C543.048 1159.8 519.999 1190.35 530.243 1206.64ZM604.509 1176.09C609.631 1167.94 609.631 1186.27 604.509 1176.09V1176.09ZM586.583 1271.82C589.144 1261.64 589.144 1282 586.583 1271.82V1271.82ZM573.778 1288.11C573.778 1284.04 584.022 1277.93 571.217 1279.97C571.217 1282 571.217 1288.11 573.778 1288.11ZM573.778 1300.33C581.461 1292.19 578.9 1308.48 573.778 1300.33V1300.33ZM555.852 1328.85C555.852 1326.81 558.413 1328.85 555.852 1328.85V1328.85ZM545.608 1357.36C555.852 1357.36 558.413 1341.07 553.291 1336.99C550.73 1345.14 548.169 1351.25 545.608 1357.36ZM479.025 1371.62C486.708 1365.51 484.147 1361.44 481.586 1353.29C486.708 1351.25 491.829 1353.29 491.829 1349.22C486.708 1351.25 484.147 1347.18 479.025 1347.18C481.586 1361.44 471.342 1363.47 479.025 1371.62ZM466.22 1389.95C473.903 1391.99 479.025 1379.77 473.903 1377.73C476.464 1383.84 463.659 1381.8 466.22 1389.95ZM537.926 1391.99C545.608 1381.8 543.048 1400.13 537.926 1391.99V1391.99ZM535.365 1406.24H540.487V1402.17H535.365V1406.24ZM525.121 1442.91C527.682 1432.72 522.56 1457.16 525.121 1442.91V1442.91ZM519.999 1479.57C522.56 1475.49 522.56 1471.42 514.878 1469.38C517.438 1473.46 514.878 1479.57 519.999 1479.57ZM450.855 1495.86C458.538 1499.94 466.22 1483.64 453.416 1483.64C455.977 1491.79 450.855 1491.79 450.855 1495.86ZM450.855 1516.23C450.855 1508.08 458.538 1506.05 448.294 1504.01C450.855 1508.08 445.733 1516.23 450.855 1516.23ZM499.512 1526.41C504.634 1516.23 504.634 1536.6 499.512 1526.41V1526.41ZM445.733 1544.74C443.172 1538.63 453.416 1530.49 445.733 1526.41C448.294 1534.56 435.49 1540.67 445.733 1544.74ZM435.49 1554.93H443.172V1550.85H435.49V1554.93ZM499.512 1552.89C504.634 1542.71 504.634 1563.08 499.512 1552.89V1552.89ZM435.49 1579.37C438.05 1575.3 445.733 1563.08 438.05 1561.04C438.05 1565.11 430.368 1577.33 435.49 1579.37ZM491.829 1581.41C489.269 1581.41 494.39 1583.44 491.829 1581.41V1581.41ZM430.368 1601.77H435.49V1591.59H430.368V1601.77ZM417.563 1618.07C420.124 1616.03 420.124 1613.99 422.685 1611.96C425.246 1613.99 427.807 1616.03 430.368 1616.03C430.368 1609.92 430.368 1599.74 420.124 1599.74C425.246 1609.92 409.88 1613.99 417.563 1618.07ZM481.586 1616.03C486.708 1607.88 486.708 1626.21 481.586 1616.03V1616.03ZM422.685 1622.14C425.246 1611.96 420.124 1636.4 422.685 1622.14V1622.14ZM417.563 1624.18C417.563 1622.14 420.124 1626.21 417.563 1624.18V1624.18ZM415.002 1638.43C409.88 1642.51 404.759 1664.91 412.441 1660.84C407.32 1650.66 422.685 1654.73 420.124 1646.58C415.002 1646.58 415.002 1642.51 415.002 1638.43C425.246 1632.32 409.88 1622.14 415.002 1638.43ZM473.903 1660.84C476.464 1650.66 476.464 1671.02 473.903 1660.84V1660.84ZM415.002 1689.35C412.441 1691.39 409.88 1689.35 407.32 1691.39C409.88 1691.39 415.002 1691.39 415.002 1689.35ZM427.807 1748.42C430.368 1738.24 430.368 1758.6 427.807 1748.42V1748.42ZM422.685 1758.6C427.807 1750.46 430.368 1768.79 422.685 1758.6V1758.6ZM499.512 1269.78C514.878 1267.75 496.951 1255.52 499.512 1269.78V1269.78ZM512.317 1267.75C517.438 1275.89 517.438 1257.56 512.317 1267.75V1267.75ZM499.512 1269.78C504.634 1277.93 499.512 1275.89 504.634 1282C509.756 1282 507.195 1275.89 512.317 1275.89C509.756 1279.97 509.756 1284.04 509.756 1288.11C504.634 1288.11 504.634 1284.04 499.512 1284.04C491.829 1288.11 491.829 1320.7 479.025 1330.88C481.586 1306.44 491.829 1290.15 496.951 1269.78H499.512ZM499.512 1304.41C509.756 1306.44 496.951 1310.52 496.951 1312.55C489.269 1310.52 502.073 1306.44 499.512 1304.41ZM1600.7 1410.32C1598.14 1410.32 1595.58 1408.28 1598.14 1406.24C1585.34 1422.54 1603.26 1508.08 1590.46 1548.82C1549.48 1668.99 1441.93 1736.2 1308.76 1783.04C1252.42 1799.34 1178.15 1801.38 1124.37 1772.86C1098.76 1746.38 1083.4 1721.94 1075.72 1683.24C1073.15 1675.1 1080.84 1677.13 1078.28 1668.99C1073.15 1654.73 1075.72 1644.55 1073.15 1632.32C1093.64 1585.48 1101.32 1526.41 1144.86 1497.9C1147.42 1473.46 1167.91 1461.24 1183.27 1449.02C1183.27 1442.91 1173.03 1449.02 1173.03 1451.05C1167.91 1446.98 1175.59 1436.8 1188.4 1438.83C1183.27 1426.61 1190.96 1422.54 1190.96 1414.39C1196.08 1422.54 1208.88 1424.58 1214 1430.69C1219.13 1430.69 1219.13 1424.58 1226.81 1424.58C1211.44 1420.5 1201.2 1414.39 1201.2 1400.13C1231.93 1373.66 1272.91 1353.29 1303.64 1324.77C1313.88 1322.74 1311.32 1316.63 1321.56 1320.7C1324.12 1316.63 1329.25 1304.41 1339.49 1312.55C1349.73 1292.19 1375.34 1277.93 1390.71 1271.82C1403.51 1259.6 1416.32 1245.34 1434.24 1239.23C1411.19 1212.75 1370.22 1184.24 1336.93 1174.05C1331.81 1172.02 1324.12 1165.91 1329.25 1159.8C1313.88 1157.76 1295.95 1155.72 1290.83 1143.5C1280.59 1145.54 1283.15 1143.5 1272.91 1143.5C1219.13 1108.88 1147.42 1090.55 1098.76 1051.85H1088.52C1055.23 1031.48 1021.94 1009.08 980.962 994.82C929.744 958.158 886.209 917.423 868.282 854.284C868.282 850.21 873.404 850.21 875.965 848.173C858.039 789.107 896.452 697.453 942.549 656.718C947.67 652.645 957.914 652.645 960.475 648.571C975.84 636.351 993.767 613.946 1014.25 609.873C1019.38 605.799 1019.38 597.652 1027.06 593.579C1091.08 565.064 1144.86 530.439 1221.69 512.109C1326.68 461.19 1477.78 440.822 1605.82 412.307C1613.51 412.307 1618.63 412.307 1618.63 416.381C1641.68 402.124 1682.65 410.271 1710.82 402.124C1759.48 408.234 1805.57 416.381 1843.99 436.749V446.932C1856.79 446.932 1856.79 451.006 1864.47 451.006C1884.96 499.888 1905.45 544.697 1923.38 603.763C1920.81 609.873 1918.25 615.983 1910.57 620.057C1874.72 620.057 1851.67 573.211 1856.79 546.733C1774.84 503.962 1659.6 503.962 1567.41 524.329H1539.24C1500.83 538.586 1449.61 540.623 1416.32 556.917C1342.05 565.064 1267.78 603.763 1198.64 615.983C1160.23 638.387 1114.13 656.718 1073.15 677.086C1068.03 679.123 1070.59 687.27 1065.47 691.343C1055.23 689.306 1055.23 695.417 1050.11 691.343C1029.62 707.637 1021.94 719.858 991.206 725.968C980.962 736.152 978.401 750.409 957.914 752.446C957.914 778.924 922.061 797.254 924.622 825.769C927.183 846.137 975.84 884.835 1011.69 909.276C1042.42 929.644 1073.15 941.864 1098.76 958.158C1101.32 966.305 1116.69 964.268 1114.13 974.452C1134.62 978.526 1160.23 992.783 1173.03 1007.04C1224.25 1023.33 1270.34 1045.74 1319 1068.14C1321.56 1072.22 1326.68 1076.29 1329.25 1082.4C1342.05 1082.4 1344.61 1090.55 1357.42 1088.51C1372.78 1104.8 1388.15 1117.03 1413.76 1123.14C1431.68 1155.72 1472.66 1167.94 1493.14 1196.46C1518.75 1182.2 1539.24 1163.87 1569.97 1153.69C1575.09 1151.65 1577.65 1145.54 1575.09 1137.39C1595.58 1127.21 1616.07 1117.03 1628.87 1098.69C1657.04 1086.47 1674.97 1064.07 1698.02 1043.7C1749.23 1000.93 1803.01 947.974 1846.55 905.203C1884.96 868.541 1905.45 821.696 1920.81 774.85C1910.57 746.336 1897.77 736.152 1874.72 719.858C1884.96 707.637 1864.47 713.747 1864.47 703.564C1869.6 687.27 1887.52 697.453 1902.89 697.453C1902.89 705.6 1900.33 715.784 1905.45 719.858C1913.13 715.784 1905.45 699.49 1908.01 691.343C1928.5 703.564 1938.74 723.931 1954.11 740.225C1951.54 778.924 1977.15 809.475 1984.84 842.063C1977.15 895.019 1946.42 927.607 1925.94 970.379C1892.64 990.746 1882.4 1031.48 1843.99 1047.78C1843.99 1057.96 1833.74 1062.03 1833.74 1072.22C1762.04 1114.99 1726.19 1184.24 1646.8 1220.9C1631.43 1247.38 1582.77 1267.75 1557.17 1294.22C1577.65 1332.92 1593.02 1369.58 1600.7 1410.32ZM1887.52 715.784C1890.08 705.6 1890.08 725.968 1887.52 715.784V715.784ZM1925.94 876.688C1931.06 876.688 1933.62 874.651 1936.18 872.614C1931.06 872.614 1928.5 874.651 1925.94 876.688ZM1936.18 884.835V888.909C1943.86 892.982 1943.86 880.762 1938.74 880.762C1938.74 882.798 1938.74 884.835 1936.18 884.835ZM1902.89 913.35C1908.01 913.35 1910.57 911.313 1910.57 909.276C1905.45 909.276 1902.89 911.313 1902.89 913.35ZM1846.55 921.497C1849.11 911.313 1849.11 929.644 1846.55 921.497V921.497ZM1913.13 921.497C1918.25 913.35 1920.81 929.644 1913.13 921.497V921.497ZM1820.94 952.048C1828.62 952.048 1833.74 952.048 1836.3 954.085C1841.43 943.901 1861.91 931.68 1859.35 923.533C1846.55 933.717 1838.87 947.974 1820.94 952.048ZM1856.79 945.938C1867.04 941.864 1872.16 933.717 1877.28 927.607C1864.47 929.644 1861.91 939.827 1856.79 945.938ZM1887.52 935.754C1895.21 937.791 1892.64 929.644 1895.2 927.607C1890.08 927.607 1884.96 929.644 1887.52 935.754ZM1882.4 945.938C1887.52 935.754 1887.52 954.085 1882.4 945.938V945.938ZM1902.89 952.048C1900.33 954.085 1895.2 952.048 1895.2 954.085C1897.77 954.085 1902.89 954.085 1902.89 952.048ZM1841.43 964.269C1838.87 964.269 1836.3 966.305 1836.3 966.305C1833.74 966.305 1833.74 968.342 1833.74 970.379C1826.06 972.416 1813.26 986.673 1818.38 990.746C1823.5 982.599 1833.74 980.563 1833.74 970.379C1836.3 970.379 1836.3 968.342 1836.3 966.305C1838.87 968.342 1841.43 966.305 1841.43 964.269C1843.99 962.232 1849.11 960.195 1849.11 954.085C1841.43 954.085 1841.43 960.195 1841.43 964.269ZM1826.06 962.232H1820.94C1818.38 972.416 1808.13 970.379 1800.45 972.416V986.673C1764.6 1005 1736.43 1043.7 1705.7 1057.96C1705.7 1066.11 1695.45 1066.11 1695.45 1074.25C1657.04 1094.62 1626.31 1129.25 1590.46 1147.58C1590.46 1149.61 1587.9 1145.54 1585.34 1145.54C1582.77 1155.72 1577.65 1167.94 1557.17 1165.91C1557.17 1174.05 1549.48 1178.13 1544.36 1184.24C1536.68 1182.2 1518.75 1194.42 1518.75 1206.64C1559.73 1194.42 1577.65 1161.83 1616.07 1147.58C1613.51 1141.47 1621.19 1143.5 1618.63 1135.36C1626.31 1141.47 1628.87 1133.32 1636.55 1133.32C1672.41 1094.62 1728.75 1072.22 1756.92 1027.41C1779.96 1023.33 1782.53 1002.97 1800.45 994.82V986.673C1810.7 980.563 1820.94 974.452 1826.06 962.232C1828.62 960.195 1823.5 960.195 1826.06 962.232ZM1856.79 976.489C1856.79 970.379 1869.6 974.452 1874.72 970.379C1874.72 966.305 1874.72 960.195 1872.16 960.195C1869.6 966.305 1846.55 970.379 1856.79 976.489ZM1879.84 984.636C1879.84 980.563 1884.96 978.526 1879.84 976.489C1879.84 980.563 1874.72 982.599 1879.84 984.636ZM1846.55 982.599C1849.11 972.416 1849.11 990.746 1846.55 982.599V982.599ZM1836.3 994.82C1836.3 992.783 1838.87 994.82 1836.3 994.82V994.82ZM1815.82 1045.74C1818.38 1039.63 1823.5 1025.37 1818.38 1023.33C1818.38 1031.48 1803.01 1041.67 1815.82 1045.74ZM1160.23 1031.48C1167.91 1021.3 1165.35 1039.63 1160.23 1031.48V1031.48ZM1198.64 1047.78C1203.76 1051.85 1208.88 1053.89 1216.57 1047.78C1214 1043.7 1203.76 1047.78 1203.76 1043.7C1203.76 1041.67 1203.76 1039.63 1201.2 1039.63C1201.2 1043.7 1198.64 1045.74 1198.64 1047.78ZM1790.21 1062.03C1797.89 1060 1818.38 1055.92 1810.7 1047.78C1803.01 1060 1800.45 1043.7 1795.33 1043.7C1792.77 1047.78 1785.09 1060 1790.21 1062.03ZM1214 1055.92C1214 1064.07 1224.25 1062.03 1231.93 1060V1070.18C1244.74 1064.07 1239.61 1068.14 1252.42 1070.18C1254.98 1055.92 1234.49 1057.96 1229.37 1049.81C1226.81 1060 1219.13 1049.81 1214 1055.92ZM1754.36 1055.92C1754.36 1051.85 1749.23 1051.85 1749.23 1055.92C1751.79 1055.92 1751.79 1057.96 1754.36 1055.92ZM1733.87 1070.18C1741.55 1074.25 1741.55 1057.96 1733.87 1062.03V1070.18ZM1257.54 1080.36C1267.78 1078.33 1267.78 1088.51 1275.47 1088.51C1270.34 1076.29 1275.47 1078.33 1283.15 1084.44C1283.15 1080.36 1288.27 1078.33 1288.27 1074.25C1272.91 1076.29 1275.47 1064.07 1262.66 1064.07C1260.1 1070.18 1254.98 1070.18 1257.54 1080.36ZM1772.28 1072.22C1782.53 1076.29 1782.53 1062.03 1772.28 1064.07V1072.22ZM1306.2 1094.62C1311.32 1088.51 1303.64 1076.29 1293.39 1074.25C1290.83 1078.33 1293.39 1094.62 1306.2 1094.62ZM1779.96 1084.44H1785.09C1785.09 1082.4 1787.65 1082.4 1787.65 1080.36C1785.09 1080.36 1785.09 1076.29 1779.96 1076.29V1084.44ZM1311.32 1084.44C1313.88 1074.25 1308.76 1098.69 1311.32 1084.44V1084.44ZM1421.44 1157.76H1416.32C1413.76 1159.8 1413.76 1161.83 1413.76 1165.91C1424 1167.94 1434.24 1172.02 1441.92 1180.16C1454.73 1167.94 1434.24 1157.76 1421.44 1157.76C1426.56 1157.76 1429.12 1157.76 1429.12 1155.72C1421.44 1153.69 1421.44 1149.61 1418.88 1143.5C1411.19 1143.5 1400.95 1141.47 1398.39 1145.54C1398.39 1137.39 1390.71 1137.39 1390.71 1129.25C1370.22 1129.25 1370.22 1100.73 1344.61 1108.88C1347.17 1106.84 1349.73 1104.8 1349.73 1100.73C1334.37 1100.73 1324.12 1084.44 1319 1086.47C1321.56 1086.47 1321.56 1088.51 1321.56 1088.51C1319 1096.66 1303.64 1092.58 1306.2 1104.8C1316.44 1098.69 1319 1108.88 1334.37 1106.84C1334.37 1117.03 1344.61 1117.03 1344.61 1125.17C1357.42 1129.25 1352.29 1117.03 1357.42 1117.03C1362.54 1133.32 1383.02 1151.65 1411.19 1157.76C1411.19 1153.69 1400.95 1147.58 1411.19 1145.54C1411.19 1151.65 1421.44 1151.65 1421.44 1157.76ZM1692.89 1098.69C1690.33 1098.69 1690.33 1100.73 1690.33 1100.73C1682.65 1104.8 1667.28 1114.99 1674.97 1121.1C1677.53 1112.95 1690.33 1112.95 1690.33 1100.73C1692.89 1102.77 1692.89 1100.73 1692.89 1098.69C1705.7 1098.69 1692.89 1090.55 1692.89 1098.69ZM1738.99 1100.73C1736.43 1100.73 1736.43 1102.77 1736.43 1104.8C1736.43 1106.84 1731.31 1104.8 1736.43 1104.8C1738.99 1104.8 1738.99 1102.77 1738.99 1100.73C1744.11 1102.77 1749.23 1100.73 1749.23 1096.66C1744.11 1096.66 1738.99 1098.69 1738.99 1100.73ZM1713.38 1121.1C1728.75 1119.06 1738.99 1125.17 1741.55 1112.95C1738.99 1110.91 1731.31 1106.84 1723.62 1106.84C1726.19 1114.99 1713.38 1112.95 1713.38 1121.1ZM1657.04 1165.91C1662.16 1165.91 1657.04 1174.05 1664.72 1172.02C1664.72 1159.8 1695.45 1172.02 1687.77 1157.76C1687.77 1159.8 1680.09 1161.83 1680.09 1157.76C1682.65 1151.65 1685.21 1145.54 1692.89 1145.54C1698.02 1145.54 1695.45 1151.65 1698.02 1153.69C1710.82 1145.54 1721.06 1139.43 1726.19 1129.25C1715.94 1129.25 1718.5 1121.1 1705.7 1123.14C1690.33 1137.39 1669.85 1149.61 1657.04 1165.91ZM1626.31 1153.69C1641.68 1147.58 1651.92 1135.36 1664.72 1125.17C1646.8 1131.28 1636.55 1143.5 1626.31 1153.69ZM1572.53 1192.39C1593.02 1182.2 1605.82 1167.94 1621.19 1155.72C1603.26 1165.91 1580.21 1174.05 1572.53 1192.39ZM1633.99 1194.42V1198.5C1639.11 1196.46 1649.36 1196.46 1649.36 1190.35C1641.68 1188.31 1639.11 1194.42 1633.99 1194.42C1631.43 1182.2 1651.92 1186.27 1649.36 1174.05C1605.82 1188.31 1577.65 1231.08 1534.12 1245.34C1534.12 1255.52 1544.36 1255.52 1549.48 1263.67C1552.04 1255.52 1559.73 1255.52 1567.41 1251.45C1557.17 1247.38 1564.85 1237.19 1569.97 1233.12C1575.09 1239.23 1582.77 1239.23 1590.46 1235.16C1595.58 1227.01 1580.21 1235.16 1582.77 1229.05C1587.9 1220.9 1600.7 1218.86 1605.82 1210.72C1603.26 1212.75 1598.14 1212.75 1598.14 1208.68C1618.63 1210.72 1618.63 1196.46 1633.99 1194.42ZM1457.29 1184.24C1454.73 1180.16 1459.85 1172.02 1449.61 1174.05C1449.61 1180.16 1452.17 1182.2 1457.29 1184.24ZM1477.78 1202.57C1467.53 1202.57 1475.22 1186.27 1462.41 1190.35C1462.41 1196.46 1470.09 1210.72 1477.78 1202.57ZM1549.48 1204.61C1536.68 1206.64 1534.12 1218.86 1523.87 1220.9C1539.24 1220.9 1544.36 1212.75 1549.48 1204.61C1559.73 1204.61 1564.85 1198.5 1567.41 1192.39C1557.17 1192.39 1554.6 1198.5 1549.48 1204.61ZM1505.95 1206.64V1210.72H1511.07C1511.07 1210.72 1511.07 1208.68 1513.63 1208.68V1204.61H1508.51C1508.51 1206.64 1508.51 1206.64 1505.95 1206.64ZM1616.07 1210.72C1623.75 1212.75 1626.31 1210.72 1628.87 1206.64C1623.75 1206.64 1618.63 1208.68 1616.07 1210.72ZM1385.59 1284.04C1372.78 1308.48 1326.68 1324.77 1303.64 1349.22C1306.2 1349.22 1311.32 1351.25 1313.88 1353.29C1324.12 1347.18 1326.68 1336.99 1336.93 1330.88C1375.34 1330.88 1372.78 1296.26 1406.07 1292.19C1408.63 1282 1421.44 1279.97 1426.56 1269.78L1434.24 1275.89C1441.93 1269.78 1452.17 1265.71 1457.29 1255.52C1454.73 1255.52 1452.17 1253.49 1452.17 1251.45C1416.32 1249.41 1418.88 1282 1385.59 1284.04ZM1457.29 1267.75C1457.29 1257.56 1454.73 1282 1457.29 1267.75V1267.75ZM1447.05 1279.97C1447.05 1275.89 1452.17 1275.89 1452.17 1271.82C1447.05 1269.78 1439.36 1279.97 1447.05 1279.97ZM1413.76 1300.33C1426.56 1296.26 1431.68 1288.11 1436.8 1282C1424 1284.04 1413.76 1288.11 1413.76 1300.33ZM1464.97 1302.37C1477.78 1302.37 1485.46 1300.33 1482.9 1290.15C1472.66 1290.15 1467.53 1294.22 1464.97 1302.37ZM1447.05 1314.59C1459.85 1316.63 1459.85 1308.48 1462.41 1302.37C1454.73 1302.37 1449.61 1306.44 1447.05 1314.59ZM1395.83 1308.48C1406.07 1304.41 1388.15 1316.63 1395.83 1308.48V1308.48ZM1359.98 1330.88C1370.22 1328.85 1380.46 1324.77 1383.02 1316.63C1370.22 1316.63 1367.66 1326.81 1359.98 1330.88ZM1447.05 1320.7C1441.92 1322.74 1439.36 1318.66 1434.24 1318.66C1429.12 1326.81 1447.05 1326.81 1447.05 1320.7ZM1413.76 1389.95C1406.07 1396.06 1393.27 1398.1 1385.59 1404.21C1293.39 1481.6 1183.27 1544.74 1126.93 1648.62C1144.86 1675.1 1175.59 1687.32 1214 1695.46C1242.17 1697.5 1278.03 1687.32 1293.39 1683.24C1352.29 1666.95 1418.88 1640.47 1462.41 1607.88C1508.51 1573.26 1549.48 1501.97 1557.17 1449.02C1562.29 1424.58 1549.48 1402.17 1549.48 1377.73C1531.56 1363.47 1531.56 1332.92 1511.07 1318.66C1485.46 1347.18 1434.24 1355.33 1413.76 1389.95ZM1395.83 1353.29C1406.07 1347.18 1439.36 1334.96 1426.56 1324.77C1421.44 1339.03 1393.27 1334.96 1395.83 1353.29ZM1344.61 1343.11C1339.49 1347.18 1326.68 1347.18 1326.68 1357.36C1336.93 1355.33 1342.05 1351.25 1344.61 1343.11C1359.98 1343.11 1347.17 1334.96 1344.61 1343.11ZM1260.1 1375.69C1260.1 1381.8 1265.22 1383.84 1267.78 1385.88C1278.03 1373.66 1290.83 1359.4 1306.2 1361.44C1306.2 1355.33 1301.08 1351.25 1295.95 1349.22C1288.27 1361.44 1278.03 1369.58 1260.1 1375.69ZM1313.88 1361.44C1329.25 1361.44 1311.32 1375.69 1313.88 1361.44V1361.44ZM1383.02 1367.55V1373.66C1388.15 1373.66 1390.71 1371.62 1390.71 1367.55H1383.02C1380.46 1363.47 1385.59 1363.47 1385.59 1361.44C1372.78 1359.4 1365.1 1361.44 1367.66 1373.66C1375.34 1375.69 1372.78 1365.51 1383.02 1367.55ZM1272.91 1394.02H1267.78C1267.78 1396.06 1265.22 1402.17 1267.78 1402.17C1270.34 1400.13 1272.91 1398.1 1272.91 1394.02C1290.83 1391.99 1298.51 1379.77 1308.76 1369.58C1290.83 1373.66 1280.59 1383.84 1272.91 1394.02ZM1329.25 1381.8C1326.68 1389.95 1334.37 1389.95 1334.37 1394.02C1347.17 1394.02 1370.22 1381.8 1357.42 1375.69C1352.29 1379.77 1334.37 1377.73 1329.25 1381.8ZM1252.42 1385.88C1254.98 1381.8 1260.1 1379.77 1252.42 1377.73C1252.42 1379.77 1247.3 1383.84 1252.42 1385.88ZM1326.68 1400.13C1336.93 1394.02 1319 1408.28 1326.68 1400.13V1400.13ZM1280.59 1416.43C1290.83 1420.5 1275.47 1428.65 1283.15 1430.69C1295.95 1430.69 1295.95 1418.47 1311.32 1418.47C1313.88 1412.35 1308.76 1410.32 1303.64 1406.24C1306.2 1418.47 1283.15 1410.32 1280.59 1416.43ZM1249.86 1442.91C1267.78 1444.94 1257.54 1426.61 1278.03 1430.69C1278.03 1426.61 1278.03 1422.54 1280.59 1418.47C1257.54 1418.47 1260.1 1434.76 1249.86 1442.91ZM1242.17 1434.76C1242.17 1432.72 1244.74 1430.69 1247.3 1430.69C1247.3 1426.61 1244.74 1422.54 1242.17 1422.54C1244.74 1428.65 1231.93 1432.72 1242.17 1434.76ZM1157.66 1715.83C1160.23 1709.72 1147.42 1703.61 1144.86 1709.72C1149.98 1711.76 1152.54 1713.79 1157.66 1715.83ZM1321.56 1715.83C1326.68 1713.79 1334.37 1713.79 1334.37 1707.68C1326.68 1707.68 1324.12 1711.76 1321.56 1715.83ZM1298.51 1719.91C1303.64 1709.72 1303.64 1730.09 1298.51 1719.91V1719.91ZM1890.08 681.159C1884.96 687.27 1872.16 683.196 1856.79 685.233C1861.91 677.086 1874.72 681.159 1890.08 681.159ZM1600.7 1410.32C1603.26 1410.32 1603.26 1412.35 1600.7 1410.32V1410.32ZM1603.26 1418.47C1605.82 1410.32 1600.7 1434.76 1603.26 1418.47V1418.47ZM1610.94 1453.09C1618.63 1457.16 1610.94 1469.38 1610.94 1473.46C1603.26 1471.42 1605.82 1455.13 1610.94 1453.09ZM1605.82 1479.57C1616.07 1487.71 1605.82 1506.05 1603.26 1512.16C1598.14 1506.05 1605.82 1487.71 1605.82 1479.57ZM1598.14 1514.19C1610.94 1516.23 1598.14 1530.49 1598.14 1534.56C1587.9 1530.49 1598.14 1520.3 1598.14 1514.19ZM1523.87 1520.3C1521.31 1518.27 1526.43 1520.3 1523.87 1520.3V1520.3ZM2717.26 994.82V998.893C2719.82 998.893 2719.82 994.82 2717.26 994.82V988.71C2724.94 986.673 2737.74 998.893 2740.3 1007.04C2750.55 1009.08 2742.86 998.893 2753.11 1000.93C2778.72 1029.44 2814.57 1051.85 2847.86 1072.22C2858.11 1070.18 2835.06 1066.11 2845.3 1060C2888.84 1086.47 2917.01 1133.32 2922.13 1182.2C2917.01 1277.93 2865.79 1373.66 2806.89 1446.98C2768.47 1512.16 2717.26 1567.15 2658.35 1613.99C2578.97 1685.28 2468.85 1809.52 2294.71 1789.15C2251.17 1783.04 2225.56 1764.71 2187.15 1748.42C2184.59 1744.35 2179.47 1740.27 2176.9 1734.16C2161.54 1734.16 2158.98 1719.91 2153.86 1715.83C2151.3 1711.76 2143.61 1711.76 2138.49 1707.68C2105.2 1673.06 2069.35 1618.07 2056.54 1571.22C2038.62 1512.16 2036.05 1459.2 2028.37 1391.99C2033.49 1398.1 2048.86 1375.69 2038.62 1373.66C2023.25 1371.62 2041.18 1383.84 2030.93 1387.91C2015.57 1375.69 2041.18 1353.29 2038.62 1343.11C2038.62 1345.14 2041.18 1345.14 2043.74 1345.14C2043.74 1343.11 2038.62 1345.14 2038.62 1343.11C2061.66 1206.64 2123.13 1068.14 2202.51 954.085C2202.51 952.048 2197.39 952.048 2194.83 952.048C2197.39 947.974 2199.95 943.901 2210.2 941.864C2217.88 907.239 2261.41 880.761 2274.22 840.026C2284.46 844.1 2276.78 831.879 2287.02 835.953C2325.44 770.777 2376.66 713.747 2427.87 658.755C2443.24 624.13 2466.29 595.616 2494.46 571.174C2497.02 565.064 2499.58 563.027 2499.58 554.88C2589.21 481.557 2619.94 361.389 2745.43 314.543C2763.35 312.506 2776.16 318.617 2796.64 316.58C2819.69 326.764 2863.23 359.352 2855.54 389.903C2850.42 408.234 2817.13 420.455 2796.64 404.16C2794.08 408.234 2781.28 420.455 2776.16 412.307C2750.55 424.528 2742.86 451.006 2717.26 461.19C2658.35 544.697 2584.09 611.91 2530.31 697.453C2525.19 699.49 2522.63 701.527 2517.51 701.527V713.747C2456.04 782.997 2402.26 858.357 2340.8 927.607C2348.49 947.974 2330.56 962.232 2310.07 966.305C2297.27 996.857 2281.9 1025.37 2258.85 1047.78C2246.05 1092.58 2210.2 1117.03 2199.95 1161.83C2197.39 1169.98 2192.27 1174.05 2184.59 1178.13C2182.03 1210.72 2151.3 1243.3 2153.86 1277.93C2123.13 1314.59 2125.69 1353.29 2115.44 1398.1C2192.27 1286.08 2263.98 1165.91 2379.22 1082.4C2379.22 1078.33 2374.09 1076.29 2376.66 1072.22C2381.78 1068.14 2381.78 1074.25 2386.9 1074.25C2450.92 1013.15 2558.48 960.195 2683.96 972.416C2691.65 980.563 2701.89 988.71 2717.26 994.82ZM2386.9 782.997C2386.9 787.071 2384.34 785.034 2386.9 782.997C2397.14 787.071 2392.02 776.887 2397.14 774.85C2389.46 772.813 2389.46 778.924 2386.9 782.997ZM2243.49 978.526C2240.93 978.526 2246.05 980.562 2243.49 978.526V978.526ZM2261.41 986.673C2261.41 984.636 2261.41 984.636 2263.98 984.636C2263.98 980.563 2263.98 978.526 2258.85 978.526C2258.85 982.599 2258.85 986.673 2261.41 986.673ZM2230.68 988.71C2243.49 996.857 2220.44 996.857 2230.68 988.71V988.71ZM2645.55 994.82H2653.23V988.71H2645.55V994.82ZM2563.6 1007.04C2586.65 1011.11 2591.77 994.82 2622.5 996.857C2607.14 984.636 2573.84 998.893 2563.6 1007.04ZM2509.82 1013.15C2512.38 1021.3 2507.26 1019.26 2507.26 1025.37C2525.19 1019.26 2548.24 1017.22 2561.04 1002.97C2537.99 1000.93 2535.43 1019.26 2509.82 1013.15ZM2207.64 1033.52C2207.64 1029.44 2220.44 1021.3 2212.76 1015.19C2212.76 1021.3 2199.95 1029.44 2207.64 1033.52ZM2476.53 1031.48C2476.53 1039.63 2463.73 1029.44 2476.53 1031.48C2481.65 1029.44 2481.65 1031.48 2484.21 1033.52C2481.65 1035.56 2476.53 1037.59 2476.53 1039.63C2466.29 1043.7 2471.41 1033.52 2461.17 1035.55C2445.8 1037.59 2463.73 1051.85 2445.8 1051.85C2445.8 1047.78 2443.24 1045.74 2440.68 1045.74C2443.24 1051.85 2433 1049.81 2433 1055.92C2440.68 1053.89 2438.12 1060 2443.24 1060C2443.24 1055.92 2443.24 1053.89 2445.8 1051.85C2450.92 1064.07 2453.48 1047.78 2468.85 1049.81C2463.73 1041.67 2476.53 1045.74 2476.53 1039.63C2486.77 1035.56 2502.14 1035.56 2504.7 1023.33C2491.9 1023.33 2481.65 1023.33 2476.53 1031.48ZM2640.43 1027.41C2632.75 1025.37 2635.31 1029.44 2625.06 1025.37C2619.94 1033.52 2640.43 1031.48 2640.43 1027.41ZM2586.65 1035.55C2596.89 1035.55 2612.26 1037.59 2609.7 1027.41C2602.01 1031.48 2586.65 1027.41 2586.65 1035.55ZM2576.41 1043.7C2573.84 1039.63 2576.41 1033.52 2571.28 1033.52C2568.72 1035.56 2568.72 1041.67 2576.41 1043.7ZM2494.46 1051.85C2494.46 1066.11 2479.09 1078.33 2463.73 1072.22C2461.17 1078.33 2458.6 1082.4 2453.48 1086.47C2427.87 1098.69 2404.83 1110.91 2392.02 1133.32C2363.85 1149.61 2333.12 1172.02 2325.44 1194.42C2381.78 1135.36 2456.04 1090.55 2532.87 1051.85C2535.43 1053.89 2535.43 1055.92 2540.55 1055.92C2537.99 1043.7 2558.48 1049.81 2555.92 1037.59C2535.43 1037.59 2520.07 1051.85 2494.46 1051.85ZM2433 1060C2433 1057.96 2427.87 1057.96 2427.87 1060C2430.43 1060 2433 1064.07 2433 1060ZM2238.37 1304.41C2240.93 1304.41 2240.93 1300.33 2238.37 1300.33C2238.37 1290.15 2220.44 1298.3 2230.68 1302.37C2230.68 1300.33 2235.81 1300.33 2238.37 1300.33V1304.41C2220.44 1304.41 2230.68 1322.74 2215.32 1320.7C2207.64 1320.7 2217.88 1312.55 2215.32 1320.7C2184.59 1341.07 2174.34 1373.66 2146.17 1394.02C2146.17 1389.95 2143.61 1389.95 2138.49 1389.95C2133.37 1400.13 2125.69 1406.24 2115.44 1410.32C2100.08 1465.31 2112.88 1542.71 2120.56 1595.66C2125.69 1603.81 2135.93 1609.92 2130.81 1620.1C2151.3 1636.4 2156.42 1662.88 2179.47 1679.17C2266.54 1723.98 2384.34 1701.57 2445.8 1646.58C2456.04 1644.55 2456.04 1650.66 2461.17 1646.58C2471.41 1636.4 2484.21 1632.32 2491.9 1622.14C2509.82 1638.43 2471.41 1644.55 2463.73 1654.73C2479.09 1660.84 2468.85 1668.99 2479.09 1675.1C2471.41 1683.24 2463.73 1687.32 2458.6 1691.39C2481.65 1687.32 2509.82 1668.99 2520.07 1646.58C2553.36 1634.36 2581.53 1618.07 2602.01 1587.52C2622.5 1591.59 2625.06 1569.19 2645.55 1561.04C2642.99 1563.08 2642.99 1567.15 2642.99 1573.26C2655.79 1571.22 2663.48 1561.04 2658.35 1550.85C2683.96 1554.93 2681.4 1522.34 2701.89 1514.19C2704.45 1506.05 2691.65 1512.16 2691.65 1504.01C2694.21 1504.01 2694.21 1499.94 2699.33 1499.94C2694.21 1512.16 2714.69 1508.08 2714.69 1499.94C2707.01 1495.86 2707.01 1501.97 2699.33 1499.94C2701.89 1493.83 2707.01 1485.68 2714.69 1483.64C2717.26 1499.94 2724.94 1477.53 2735.18 1485.68C2747.99 1469.38 2724.94 1461.24 2737.74 1451.05C2740.3 1453.09 2740.3 1457.16 2747.99 1455.13C2765.91 1440.87 2788.96 1418.47 2786.4 1394.02C2781.28 1398.1 2783.84 1408.28 2771.03 1406.24C2771.03 1394.02 2778.72 1389.95 2783.84 1381.8C2791.52 1381.8 2786.4 1391.99 2796.64 1389.95C2809.45 1369.58 2819.69 1349.22 2837.62 1339.03C2837.62 1330.88 2819.69 1328.85 2829.94 1320.7C2824.81 1318.66 2819.69 1328.85 2817.13 1320.7C2819.69 1312.55 2822.25 1304.41 2829.94 1300.33C2840.18 1304.41 2824.81 1310.52 2832.5 1314.59C2840.18 1306.44 2845.3 1298.3 2845.3 1288.11C2835.06 1284.04 2842.74 1296.26 2832.5 1292.19C2840.18 1284.04 2835.06 1263.67 2852.98 1259.6C2845.3 1222.94 2870.91 1198.5 2852.98 1159.8C2842.74 1279.97 2776.16 1355.33 2717.26 1434.76C2714.69 1432.72 2714.69 1430.69 2709.57 1428.65C2707.01 1465.31 2666.04 1495.86 2640.43 1522.34C2627.62 1510.12 2607.14 1544.74 2591.77 1538.63C2663.48 1451.05 2750.55 1375.69 2799.2 1267.75C2788.96 1265.71 2796.64 1275.89 2786.4 1271.82C2801.77 1251.45 2819.69 1227.01 2817.13 1198.5C2817.13 1204.61 2822.25 1206.64 2827.37 1208.68C2832.5 1167.94 2837.62 1143.5 2824.81 1112.95C2812.01 1125.17 2835.06 1137.39 2817.13 1145.54C2819.69 1123.14 2806.89 1098.69 2806.89 1080.36C2778.72 1064.07 2750.55 1060 2717.26 1062.03C2491.9 1062.03 2386.9 1208.68 2269.1 1316.63C2258.85 1314.59 2258.85 1320.7 2253.73 1320.7C2246.05 1320.7 2246.05 1314.59 2240.93 1314.59C2235.81 1318.66 2233.24 1324.77 2225.56 1326.81C2228.12 1318.66 2235.81 1312.55 2238.37 1304.41ZM2182.03 1070.18C2184.59 1080.36 2171.78 1070.18 2182.03 1070.18C2182.03 1066.11 2187.15 1068.14 2182.03 1070.18ZM2409.95 1070.18C2407.39 1068.14 2412.51 1072.22 2409.95 1070.18V1070.18ZM2425.31 1068.14C2422.75 1068.14 2417.63 1068.14 2417.63 1070.18C2420.19 1070.18 2425.31 1070.18 2425.31 1068.14ZM2379.22 1096.66C2386.9 1098.69 2394.58 1086.47 2386.9 1084.44C2386.9 1090.55 2376.66 1088.51 2379.22 1096.66ZM2166.66 1104.8C2164.1 1096.66 2171.78 1098.69 2171.78 1094.62C2164.1 1092.58 2158.98 1102.77 2166.66 1104.8ZM2353.61 1112.95C2361.29 1112.95 2363.85 1108.88 2368.97 1106.84C2358.73 1104.8 2356.17 1108.88 2353.61 1112.95ZM2156.42 1110.91C2164.1 1102.77 2161.54 1119.06 2156.42 1110.91V1110.91ZM2171.78 1123.14C2174.34 1121.1 2176.9 1119.06 2171.78 1117.03C2171.78 1119.06 2166.66 1121.1 2171.78 1123.14ZM2156.42 1119.06C2153.86 1119.06 2151.3 1119.06 2151.3 1121.1C2153.86 1121.1 2156.42 1121.1 2156.42 1119.06ZM2333.12 1135.36C2325.44 1137.39 2320.32 1137.39 2320.32 1143.5C2328 1143.5 2330.56 1139.43 2333.12 1135.36C2340.8 1133.32 2345.92 1125.17 2351.05 1119.06C2340.8 1121.1 2335.68 1127.21 2333.12 1135.36ZM2302.39 1159.8C2302.39 1163.87 2297.27 1161.83 2302.39 1159.8C2310.07 1159.8 2322.88 1151.65 2315.19 1145.54C2312.63 1151.65 2302.39 1151.65 2302.39 1159.8ZM2153.86 1159.8C2153.86 1157.76 2148.73 1157.76 2148.73 1159.8C2151.3 1159.8 2153.86 1163.87 2153.86 1159.8ZM2123.13 1184.24C2123.13 1184.24 2123.13 1182.2 2125.69 1182.2C2125.69 1180.16 2125.69 1176.09 2120.56 1178.13C2120.56 1180.16 2120.56 1184.24 2123.13 1184.24ZM2276.78 1190.35C2276.78 1192.39 2271.66 1190.35 2276.78 1190.35C2281.9 1186.27 2289.58 1184.24 2289.58 1178.13C2281.9 1178.13 2279.34 1184.24 2276.78 1190.35ZM2878.59 1198.5C2883.71 1196.46 2883.71 1190.35 2876.03 1190.35C2876.03 1196.46 2870.91 1196.46 2878.59 1198.5ZM2294.71 1218.86C2307.51 1214.79 2315.19 1206.64 2320.32 1196.46C2307.51 1200.53 2299.83 1208.68 2294.71 1218.86ZM2110.32 1214.79C2110.32 1210.72 2120.56 1202.57 2110.32 1198.5C2112.88 1204.61 2102.64 1210.72 2110.32 1214.79ZM2087.27 1214.79V1216.83C2071.91 1229.05 2100.08 1212.75 2087.27 1214.79ZM2873.47 1220.9C2881.15 1224.97 2881.15 1210.72 2873.47 1214.79V1220.9ZM2105.2 1222.94C2115.44 1218.86 2097.52 1233.12 2105.2 1222.94V1222.94ZM2074.47 1245.34C2082.15 1247.38 2087.27 1231.08 2079.59 1229.05C2082.15 1237.19 2071.91 1237.19 2074.47 1245.34ZM2105.2 1233.12C2102.64 1235.16 2100.08 1233.12 2100.08 1235.16C2100.08 1235.16 2105.2 1235.16 2105.2 1233.12ZM2271.66 1245.34C2269.1 1245.34 2269.1 1249.41 2269.1 1251.45C2269.1 1253.49 2263.98 1251.45 2269.1 1251.45C2271.66 1251.45 2269.1 1247.38 2271.66 1245.34C2274.22 1245.34 2279.34 1241.27 2279.34 1239.23C2274.22 1237.19 2271.66 1241.27 2271.66 1245.34ZM2100.08 1245.34C2097.52 1247.38 2092.39 1245.34 2092.39 1247.38C2094.96 1247.38 2100.08 1247.38 2100.08 1245.34ZM2071.91 1255.52C2069.35 1255.52 2074.47 1257.56 2071.91 1255.52V1255.52ZM2089.83 1263.67C2097.52 1267.75 2097.52 1253.49 2092.39 1253.49C2092.39 1257.56 2089.83 1259.6 2089.83 1263.67ZM2858.11 1259.6C2860.67 1251.45 2860.67 1269.78 2858.11 1259.6V1259.6ZM2084.71 1275.89C2092.39 1279.97 2092.39 1265.71 2087.27 1265.71C2087.27 1269.78 2084.71 1273.86 2084.71 1275.89ZM2069.35 1271.82C2079.59 1267.75 2061.66 1282 2069.35 1271.82V1271.82ZM2253.73 1271.82C2251.17 1273.86 2246.05 1273.86 2246.05 1275.89C2248.61 1273.86 2253.73 1275.89 2253.73 1271.82ZM2860.67 1277.93C2860.67 1275.89 2863.23 1279.97 2860.67 1277.93V1277.93ZM2061.66 1294.22C2061.66 1292.19 2064.22 1290.15 2069.35 1290.15C2066.79 1286.08 2066.79 1282 2061.66 1279.97C2066.79 1288.11 2053.98 1292.19 2061.66 1294.22ZM2084.71 1294.22C2087.27 1292.19 2087.27 1282 2079.59 1282C2082.15 1286.08 2077.03 1294.22 2084.71 1294.22ZM2100.08 1284.04C2102.64 1275.89 2102.64 1294.22 2100.08 1284.04V1284.04ZM2056.54 1304.41C2064.22 1308.48 2064.22 1294.22 2056.54 1296.26V1304.41ZM2069.35 1318.66C2077.03 1320.7 2084.71 1300.33 2074.47 1302.37C2077.03 1310.52 2071.91 1314.59 2069.35 1318.66ZM2840.18 1328.85C2845.3 1324.77 2847.86 1320.7 2840.18 1316.63C2840.18 1320.7 2829.94 1326.81 2840.18 1328.85ZM2179.47 1336.99C2176.9 1334.96 2182.03 1336.99 2179.47 1336.99V1336.99ZM2740.3 1398.1C2737.74 1398.1 2735.18 1398.1 2735.18 1400.13C2737.74 1400.13 2740.3 1400.13 2740.3 1398.1ZM2461.17 1675.1C2466.29 1666.95 2466.29 1685.28 2461.17 1675.1V1675.1ZM2817.13 1045.74C2822.25 1045.74 2822.25 1047.78 2827.37 1047.78C2827.37 1051.85 2812.01 1051.85 2817.13 1045.74ZM2840.18 1055.92C2840.18 1062.03 2829.94 1055.92 2827.37 1055.92C2829.94 1047.78 2835.06 1053.89 2840.18 1055.92ZM2817.13 1184.24C2822.25 1184.24 2824.81 1186.27 2824.81 1190.35C2822.25 1188.31 2822.25 1190.35 2822.25 1192.39C2817.13 1192.39 2819.69 1188.31 2817.13 1184.24ZM2809.45 1186.27C2814.57 1186.27 2814.57 1200.53 2806.89 1196.46C2804.33 1192.39 2806.89 1190.35 2809.45 1186.27ZM2806.89 1204.61C2806.89 1204.61 2804.33 1202.57 2806.89 1202.57C2819.69 1200.53 2791.52 1216.83 2806.89 1204.61ZM2799.2 1214.79C2817.13 1218.86 2791.52 1227.01 2796.64 1239.23C2786.4 1231.08 2804.33 1224.97 2799.2 1214.79ZM2786.4 1277.93C2791.52 1286.08 2794.08 1267.75 2786.4 1277.93V1277.93ZM2768.47 1314.59C2768.47 1312.55 2771.03 1316.63 2768.47 1314.59V1314.59ZM2246.05 1324.77C2251.17 1322.74 2251.17 1334.96 2243.49 1330.88V1326.81C2246.05 1326.81 2246.05 1324.77 2246.05 1324.77ZM2763.35 1326.81C2760.79 1324.77 2765.91 1328.85 2763.35 1326.81V1326.81ZM2814.57 1330.88C2819.69 1339.03 2822.25 1322.74 2814.57 1330.88V1330.88ZM2809.45 1343.11C2814.57 1347.18 2812.01 1363.47 2801.77 1363.47C2801.77 1353.29 2812.01 1353.29 2809.45 1343.11ZM2123.13 1363.47H2130.81V1367.55H2123.13V1363.47ZM2707.01 1387.91C2707.01 1385.88 2712.13 1385.88 2714.69 1385.88C2714.69 1387.91 2709.57 1387.91 2707.01 1387.91ZM2765.91 1412.35C2771.03 1420.5 2773.6 1402.17 2765.91 1412.35V1412.35ZM2755.67 1422.54C2765.91 1420.5 2768.47 1430.69 2763.35 1434.76C2755.67 1432.72 2750.55 1424.58 2755.67 1422.54ZM2747.99 1436.8C2747.99 1434.76 2750.55 1434.76 2753.11 1434.76C2753.11 1436.8 2750.55 1436.8 2747.99 1436.8ZM2740.3 1442.91C2745.43 1453.09 2745.43 1434.76 2740.3 1442.91V1442.91ZM2714.69 1483.64C2714.69 1475.49 2719.82 1471.42 2724.94 1475.49C2724.94 1481.6 2717.26 1479.57 2714.69 1483.64ZM2686.52 1516.23C2696.77 1516.23 2686.52 1506.05 2686.52 1516.23V1516.23ZM2683.96 1520.3C2683.96 1518.27 2683.96 1516.23 2686.52 1516.23C2686.52 1518.27 2686.52 1520.3 2683.96 1520.3ZM2683.96 1520.3V1526.41H2673.72V1522.34C2676.28 1522.34 2678.84 1518.27 2683.96 1520.3ZM2627.62 1528.45C2625.06 1528.45 2630.18 1530.49 2627.62 1528.45V1528.45ZM2586.65 1538.63C2594.33 1554.93 2566.16 1559 2566.16 1575.3C2540.55 1563.07 2573.84 1544.74 2586.65 1538.63ZM2594.33 1565.11C2591.77 1571.22 2586.65 1573.26 2584.09 1577.33C2576.41 1575.3 2586.65 1565.11 2594.33 1565.11ZM2540.55 1583.44C2553.36 1583.44 2540.55 1599.74 2530.31 1597.7C2530.31 1591.59 2543.11 1591.59 2540.55 1583.44ZM2555.92 1593.63C2563.6 1593.63 2558.48 1601.77 2555.92 1601.77C2548.24 1601.77 2555.92 1593.63 2555.92 1593.63ZM2514.94 1599.74C2520.07 1599.74 2522.63 1613.99 2530.31 1605.85C2537.99 1605.85 2525.19 1609.92 2530.31 1613.99C2517.51 1609.92 2514.94 1616.03 2504.7 1618.07C2502.14 1616.03 2499.58 1613.99 2494.46 1611.96C2497.02 1603.81 2514.94 1609.92 2514.94 1599.74ZM2486.77 1618.07C2484.21 1616.03 2489.34 1618.07 2486.77 1618.07V1618.07ZM2535.43 1618.07C2537.99 1626.21 2525.19 1620.1 2530.31 1626.21C2522.63 1626.21 2527.75 1613.99 2535.43 1618.07ZM2514.94 1634.36C2512.38 1636.4 2509.82 1640.47 2509.82 1644.55C2499.58 1640.47 2502.14 1650.66 2499.58 1654.73C2484.21 1650.66 2486.77 1660.84 2476.53 1660.84C2473.97 1654.73 2481.65 1654.73 2479.09 1648.62C2497.02 1656.77 2494.46 1634.36 2514.94 1634.36ZM2486.77 1660.84H2491.9V1666.95H2486.77V1660.84ZM3951.61 1416.43C3951.61 1408.28 3943.93 1412.35 3941.37 1414.39C3941.37 1424.58 3943.93 1416.43 3951.61 1416.43C3951.61 1422.54 3941.37 1422.54 3938.81 1426.61C3938.81 1438.83 3943.93 1461.24 3915.76 1461.24C3915.76 1469.38 3913.2 1467.35 3915.76 1475.49C3910.64 1479.57 3913.2 1475.49 3905.52 1475.49C3900.39 1489.75 3902.95 1493.83 3897.83 1508.08C3887.59 1506.05 3892.71 1506.05 3882.47 1508.08C3872.22 1522.34 3846.61 1530.49 3844.05 1556.96C3838.93 1556.96 3836.37 1554.93 3833.81 1552.89C3836.37 1571.22 3792.84 1579.37 3805.64 1601.77C3780.03 1628.25 3746.74 1648.62 3721.13 1673.06C3708.33 1662.88 3690.4 1675.1 3682.72 1683.24C3695.52 1685.28 3692.96 1677.13 3700.64 1679.17C3675.03 1707.68 3626.38 1719.91 3593.08 1744.35C3544.43 1756.57 3495.77 1789.15 3439.43 1781.01C3308.82 1797.3 3237.12 1723.98 3188.46 1658.8C3170.54 1609.92 3142.37 1552.89 3155.17 1501.97C3160.29 1501.97 3162.85 1504.01 3160.29 1510.12C3175.66 1506.05 3160.29 1493.83 3162.85 1483.64C3167.97 1479.57 3178.22 1479.57 3185.9 1479.57C3185.9 1469.38 3178.22 1477.53 3167.97 1475.49C3170.54 1469.38 3170.54 1459.2 3175.66 1453.09C3157.73 1457.16 3173.1 1471.42 3157.73 1475.49C3162.85 1467.35 3162.85 1455.13 3167.97 1446.98C3180.78 1449.02 3191.02 1434.76 3193.58 1428.65C3221.75 1394.02 3249.92 1351.25 3293.46 1330.88C3293.46 1363.47 3265.29 1383.84 3262.73 1414.39C3260.17 1416.43 3257.61 1416.43 3255.05 1418.47C3260.17 1420.5 3262.73 1418.47 3262.73 1414.39C3278.09 1414.39 3255.05 1424.58 3265.29 1428.65C3272.97 1436.8 3272.97 1422.54 3283.22 1424.58C3278.09 1432.72 3278.09 1432.72 3280.65 1442.91C3265.29 1446.98 3265.29 1461.24 3255.05 1467.35C3255.05 1473.46 3257.61 1475.49 3262.73 1475.49C3229.44 1532.52 3198.71 1666.95 3290.9 1691.39C3308.82 1695.46 3324.19 1691.39 3342.12 1697.5C3388.21 1701.57 3418.94 1687.32 3449.67 1691.39C3495.77 1671.02 3544.43 1654.73 3587.96 1632.32C3603.33 1618.07 3621.25 1607.88 3644.3 1599.74C3675.03 1581.41 3692.96 1550.85 3728.81 1536.6C3731.37 1532.52 3736.5 1530.49 3736.5 1522.34C3777.47 1504.01 3790.27 1461.24 3831.25 1440.87C3828.69 1432.72 3833.81 1430.69 3833.81 1422.54C3887.59 1359.4 3933.69 1275.89 3915.76 1172.02C3885.03 1080.36 3764.67 1045.74 3654.55 1031.48C3618.69 1033.52 3577.72 1033.52 3541.87 1031.48C3431.75 1043.7 3316.51 1082.4 3203.83 1082.4C3109.07 1074.25 3075.78 1009.08 3055.29 947.974C3060.42 872.615 3106.51 811.512 3129.56 738.189C3147.49 723.931 3144.93 693.38 3162.85 681.159C3185.9 609.873 3224.31 560.991 3247.36 499.888C3226.88 505.998 3203.83 508.035 3198.71 522.292C3137.24 522.292 3142.37 463.226 3152.61 434.712C3185.9 404.16 3278.09 420.454 3306.26 385.83C3319.07 383.793 3319.07 391.94 3329.31 391.94C3441.99 375.646 3570.04 353.242 3690.4 341.021C3772.35 332.874 3854.3 324.727 3938.81 322.69C4054.05 318.617 4179.53 308.433 4297.33 338.984C4305.02 349.168 4320.38 359.352 4312.7 373.609C4325.5 389.903 4335.75 410.271 4328.06 428.602C4307.58 428.602 4294.77 444.896 4276.85 438.785C4269.16 428.602 4274.29 422.491 4264.04 412.307C4164.17 377.683 4036.12 402.124 3915.76 396.013C3821.01 404.16 3731.37 412.307 3634.06 424.528C3559.79 438.785 3465.04 448.969 3385.65 465.263C3349.8 485.631 3349.8 530.439 3324.19 556.917C3321.63 565.064 3326.75 565.064 3326.75 571.174C3306.26 589.505 3298.58 624.13 3280.65 648.571C3301.14 650.608 3272.97 664.865 3278.09 681.159C3270.41 681.159 3272.97 675.049 3267.85 673.012C3260.17 681.159 3272.97 681.159 3270.41 689.306C3255.05 683.196 3247.36 705.6 3260.17 713.747C3249.92 709.674 3252.48 717.821 3247.36 717.821C3244.8 721.894 3249.92 721.895 3252.48 725.968C3234.56 768.74 3214.07 797.254 3201.27 848.173C3193.58 848.173 3191.02 842.063 3185.9 848.173C3185.9 850.21 3191.02 850.21 3193.58 850.21C3173.1 901.129 3144.93 958.158 3139.8 1013.15C3249.92 1017.22 3329.31 1002.97 3390.77 984.636C3421.5 980.563 3467.6 976.489 3500.89 972.416C3646.86 968.342 3790.27 990.746 3859.42 1068.14C3913.2 1098.69 3943.93 1149.61 3972.1 1202.57C3969.54 1192.39 3964.42 1188.31 3966.98 1174.05C3997.71 1210.72 3995.15 1279.97 3974.66 1330.88C4000.27 1355.33 3959.29 1379.77 3966.98 1402.17C3956.73 1402.17 3954.17 1406.24 3954.17 1412.35C3956.73 1412.35 3956.73 1418.47 3951.61 1416.43ZM3557.23 379.719C3557.23 369.536 3546.99 381.756 3544.43 383.793C3495.77 387.866 3426.63 391.94 3390.77 410.271C3411.26 410.271 3454.8 408.234 3480.41 398.05C3480.41 402.124 3472.72 400.087 3475.28 408.234C3490.65 408.234 3490.65 404.16 3493.21 398.05C3500.89 398.05 3495.77 408.234 3506.01 404.16C3506.01 400.087 3495.77 393.977 3506.01 391.94C3508.57 396.013 3506.01 404.16 3513.7 404.16C3516.26 402.124 3518.82 383.793 3526.5 391.94C3523.94 393.977 3523.94 396.013 3521.38 396.013C3526.5 410.271 3544.43 400.087 3559.79 396.013C3582.84 400.087 3595.65 385.83 3618.69 396.013C3626.38 393.977 3631.5 389.903 3644.3 389.903C3641.74 391.94 3639.18 391.94 3639.18 396.013C3657.11 387.866 3659.67 391.94 3677.59 379.719C3677.59 385.83 3667.35 391.94 3677.59 396.013C3677.59 389.903 3692.96 393.977 3695.52 396.013V387.866C3700.64 387.866 3700.64 389.903 3705.76 389.903C3721.13 385.83 3764.67 377.683 3782.59 385.83C3803.08 381.756 3838.93 369.536 3854.3 383.793C3864.54 375.646 3854.3 367.499 3864.54 363.425C3867.1 367.499 3867.1 373.609 3869.66 375.646C3882.47 377.683 3890.15 375.646 3895.27 371.572C3902.95 383.793 3923.44 373.609 3936.25 367.499C3936.25 373.609 3946.49 379.719 3946.49 371.572C3941.37 369.536 3946.49 359.352 3951.61 361.389V365.462C3972.1 375.646 4020.76 363.425 4046.36 367.499C4048.93 355.278 4069.41 369.536 4069.41 353.242C4074.53 353.242 4071.97 357.315 4074.54 361.389C4102.71 355.278 4125.75 363.425 4143.68 355.278C4161.61 363.425 4176.97 369.536 4197.46 371.572C4197.46 365.462 4202.58 361.389 4207.7 361.389C4223.07 369.536 4258.92 363.425 4284.53 361.389C4279.41 353.242 4269.16 347.131 4251.24 349.168C4141.12 324.727 3995.15 332.874 3879.91 338.984C3800.52 343.058 3718.57 351.205 3644.3 365.462C3611.01 367.499 3580.28 369.536 3557.23 379.719ZM4136 363.425C4133.44 367.499 4130.88 365.462 4128.31 363.425C4123.19 373.609 4146.24 365.462 4136 363.425ZM4112.95 365.462C4110.39 367.499 4107.83 365.462 4107.83 367.499C4110.39 367.499 4112.95 367.499 4112.95 365.462ZM4156.48 365.462C4153.92 365.462 4148.8 365.462 4146.24 367.499C4151.36 367.499 4156.48 369.536 4156.48 365.462ZM3869.66 383.793C3869.66 381.756 3872.22 383.793 3869.66 383.793V383.793ZM3613.57 402.124C3613.57 398.05 3611.01 396.013 3605.89 396.013C3605.89 400.087 3605.89 404.16 3613.57 402.124ZM3239.68 734.115C3244.8 732.078 3244.8 725.968 3237.12 725.968C3237.12 728.005 3237.12 734.115 3239.68 734.115ZM3237.12 740.225C3237.12 738.189 3239.68 742.262 3237.12 740.225V740.225ZM3214.07 799.291C3219.19 795.218 3208.95 787.071 3206.39 793.181C3211.51 793.181 3208.95 797.255 3214.07 799.291ZM3144.93 823.732C3144.93 821.696 3147.49 823.732 3144.93 823.732V823.732ZM3193.58 840.026C3196.14 837.99 3201.27 827.806 3193.58 827.806C3193.58 829.843 3188.46 840.026 3193.58 840.026ZM3129.56 856.32H3137.24V852.247H3129.56V856.32ZM3485.53 988.71C3482.97 988.71 3485.53 986.673 3485.53 988.71C3480.41 1002.97 3459.92 994.82 3447.11 994.82C3429.19 994.82 3421.5 1011.11 3403.58 1002.97C3403.58 1019.26 3377.97 1011.11 3372.85 1021.3C3411.26 1007.04 3462.48 1013.15 3500.89 996.857C3500.89 1000.93 3503.45 1000.93 3508.57 1000.93C3564.92 990.746 3667.35 1007.04 3716.01 1002.97C3657.11 988.71 3582.84 976.489 3529.06 986.673C3523.94 986.673 3529.06 980.562 3523.94 978.526C3518.82 986.673 3503.45 984.636 3498.33 990.746C3495.77 988.71 3493.21 984.636 3485.53 988.71ZM3480.41 988.71C3477.84 990.746 3475.28 988.71 3475.28 990.746C3475.28 990.746 3480.41 990.746 3480.41 988.71ZM3972.1 1220.9C3969.54 1222.94 3966.98 1220.9 3966.98 1222.94C3966.98 1222.94 3972.1 1222.94 3972.1 1220.9ZM3926 1328.85C3938.81 1328.85 3938.81 1296.26 3931.12 1296.26C3926 1304.41 3931.12 1320.7 3926 1328.85ZM3926 1336.99C3928.56 1326.81 3928.56 1345.14 3926 1336.99V1336.99ZM3974.66 1343.11C3979.78 1334.96 3979.78 1353.29 3974.66 1343.11V1343.11ZM3823.57 1491.79C3836.37 1491.79 3836.37 1479.57 3849.18 1477.53C3869.66 1432.72 3910.64 1391.99 3915.76 1343.11C3887.59 1389.95 3864.54 1449.02 3823.57 1491.79ZM3849.18 1428.65C3861.98 1430.69 3874.78 1408.28 3864.54 1406.24C3861.98 1418.47 3851.74 1418.47 3849.18 1428.65ZM3846.61 1430.69C3800.52 1501.97 3733.93 1552.89 3669.91 1609.92C3749.3 1563.07 3805.64 1499.94 3854.3 1430.69H3846.61ZM3920.88 1451.05C3926 1451.05 3931.12 1449.02 3931.12 1446.98C3926 1446.98 3915.76 1442.91 3920.88 1451.05ZM3803.08 1477.53C3803.08 1473.46 3813.32 1467.35 3805.64 1465.31C3805.64 1469.38 3795.4 1475.49 3803.08 1477.53ZM3191.02 1479.57C3198.71 1481.6 3201.27 1477.53 3201.27 1471.42H3191.02V1479.57ZM3821.01 1499.94V1504.01H3828.69C3828.69 1504.01 3828.69 1501.97 3831.25 1501.97V1497.9H3823.57C3823.57 1499.94 3823.57 1499.94 3821.01 1499.94ZM3813.32 1512.16C3818.44 1512.16 3821.01 1510.12 3821.01 1508.08C3815.88 1508.08 3810.76 1508.08 3813.32 1512.16ZM3792.84 1532.52C3803.08 1530.49 3808.2 1524.38 3813.32 1520.3C3803.08 1520.3 3797.96 1526.41 3792.84 1532.52ZM3777.47 1546.78H3785.15V1540.67H3777.47V1546.78ZM3821.01 1552.89C3831.25 1548.82 3813.32 1563.08 3821.01 1552.89V1552.89ZM3815.88 1561.04C3818.44 1571.22 3805.64 1561.04 3815.88 1561.04C3815.88 1559 3818.44 1559 3815.88 1561.04ZM3746.74 1581.41C3749.3 1575.3 3754.42 1573.26 3756.98 1569.19H3746.74C3751.86 1575.3 3739.06 1579.37 3746.74 1581.41ZM3803.08 1573.26C3803.08 1577.33 3797.96 1575.3 3803.08 1573.26C3803.08 1563.07 3815.88 1573.26 3803.08 1573.26ZM3785.15 1577.33C3782.59 1579.37 3777.47 1579.37 3777.47 1581.41C3780.03 1579.37 3785.15 1581.41 3785.15 1577.33ZM3792.84 1581.41C3797.96 1571.22 3797.96 1589.55 3792.84 1581.41V1581.41ZM3739.06 1585.48C3746.74 1575.3 3741.62 1593.63 3739.06 1585.48V1585.48ZM3782.59 1589.55C3792.84 1585.48 3774.91 1599.74 3782.59 1589.55V1589.55ZM3700.64 1613.99C3682.72 1624.18 3667.35 1636.4 3651.99 1648.62C3641.74 1654.73 3626.38 1658.8 3621.25 1668.99C3636.62 1664.91 3646.86 1658.8 3651.99 1648.62C3672.47 1642.51 3687.84 1628.25 3700.64 1613.99C3713.45 1611.96 3728.81 1597.7 3726.25 1589.55C3718.57 1599.74 3708.33 1605.85 3700.64 1613.99ZM3646.86 1609.92C3636.62 1607.88 3626.38 1616.03 3634.06 1620.1C3636.62 1613.99 3649.43 1620.1 3646.86 1609.92C3654.55 1609.92 3644.3 1599.74 3646.86 1609.92ZM3785.15 1609.92C3782.59 1609.92 3787.71 1611.96 3785.15 1609.92V1609.92ZM3659.67 1620.1C3667.35 1622.14 3664.79 1613.99 3667.35 1611.96C3662.23 1611.96 3657.11 1613.99 3659.67 1620.1ZM3754.42 1618.07H3759.54V1611.96H3754.42V1618.07ZM3613.57 1626.21H3621.25C3621.25 1622.14 3618.69 1622.14 3613.57 1622.14V1626.21ZM3613.57 1648.62C3628.94 1642.51 3644.3 1634.36 3654.55 1622.14C3636.62 1628.25 3623.82 1638.43 3613.57 1648.62ZM3751.86 1638.43C3762.1 1640.47 3759.54 1628.25 3767.23 1624.18C3754.42 1626.21 3749.3 1630.29 3751.86 1638.43ZM3593.08 1642.51C3590.52 1638.43 3580.28 1638.44 3582.84 1646.58C3539.31 1660.84 3511.14 1683.24 3462.48 1691.39C3459.92 1693.43 3459.92 1697.5 3454.8 1697.5C3439.43 1699.54 3424.07 1703.61 3413.82 1709.72C3390.77 1719.91 3347.24 1707.68 3331.87 1721.94C3390.77 1723.98 3457.36 1713.79 3490.65 1693.43C3493.21 1693.43 3493.21 1697.5 3498.33 1697.5C3500.89 1673.06 3544.43 1683.24 3554.67 1662.88C3562.35 1666.95 3580.28 1656.77 3582.84 1646.58C3587.96 1646.58 3593.08 1646.58 3593.08 1642.51C3600.77 1642.51 3603.33 1640.47 3603.33 1634.36C3595.65 1634.36 3593.08 1636.4 3593.08 1642.51ZM3726.25 1646.58C3733.93 1652.69 3746.74 1648.62 3746.74 1642.51C3741.62 1636.4 3731.37 1642.51 3726.25 1646.58ZM3716.01 1644.55C3726.25 1638.44 3708.33 1652.69 3716.01 1644.55V1644.55ZM3603.33 1654.73C3600.77 1652.69 3605.89 1654.73 3603.33 1654.73V1654.73ZM3728.81 1650.66C3726.25 1652.69 3723.69 1652.69 3723.69 1654.73C3726.25 1652.69 3728.81 1654.73 3728.81 1650.66ZM3710.89 1656.77V1660.84H3716.01C3721.13 1658.8 3721.13 1654.73 3713.45 1654.73C3713.45 1654.73 3713.45 1656.77 3710.89 1656.77ZM3598.21 1658.8C3595.65 1658.8 3598.21 1660.84 3598.21 1658.8V1658.8ZM3600.77 1681.21C3608.45 1681.21 3623.82 1673.06 3616.13 1668.99C3613.57 1675.1 3600.77 1673.06 3600.77 1681.21ZM3669.91 1681.21C3667.35 1681.21 3664.79 1681.21 3664.79 1683.24C3667.35 1683.24 3669.91 1683.24 3669.91 1681.21ZM3541.87 1691.39C3546.99 1691.39 3549.55 1689.35 3552.11 1685.28C3544.43 1685.28 3541.87 1687.32 3541.87 1691.39ZM3557.23 1697.5C3562.35 1689.35 3564.92 1707.68 3557.23 1697.5V1697.5ZM3526.5 1715.83H3536.74C3534.18 1711.76 3536.75 1707.68 3531.62 1707.68C3531.62 1711.76 3526.5 1711.76 3526.5 1715.83ZM3490.65 1717.87C3490.65 1713.79 3495.77 1713.79 3495.77 1709.72C3488.09 1707.68 3482.97 1715.83 3490.65 1717.87ZM3485.53 1730.09C3482.97 1728.05 3477.84 1732.13 3477.84 1732.13C3467.6 1740.27 3490.65 1734.16 3485.53 1730.09ZM4018.2 343.058C4015.63 338.984 4031 341.021 4028.44 347.131H4020.76C4020.76 345.095 4020.76 345.094 4018.2 343.058ZM3892.71 349.168C3892.71 347.131 3895.27 347.131 3897.83 347.131C3897.83 349.168 3895.27 349.168 3892.71 349.168ZM4000.27 355.278C3997.71 355.278 4002.83 357.315 4000.27 355.278V355.278ZM4036.12 353.242C4046.36 351.205 4046.36 365.462 4036.12 361.389V353.242ZM4217.95 353.242C4223.07 355.278 4225.63 357.315 4223.07 363.425C4215.38 365.462 4217.95 357.315 4217.95 353.242ZM3951.61 361.389C3951.61 359.352 3956.73 355.278 3956.73 359.352C3956.73 361.389 3954.17 361.389 3951.61 361.389ZM3969.54 355.278C3977.22 355.278 3982.34 357.315 3982.34 363.425C3974.66 363.425 3974.66 367.499 3969.54 365.462V355.278ZM3823.57 361.389C3823.57 359.352 3828.69 359.352 3831.25 359.352C3831.25 361.389 3826.13 361.389 3823.57 361.389ZM3928.56 359.352H3936.25V363.425H3928.56V359.352ZM4200.02 359.352C4194.9 363.425 4189.78 367.499 4176.97 365.462C4182.09 361.389 4189.78 359.352 4200.02 359.352ZM3785.15 363.425C3787.71 373.609 3787.71 353.242 3785.15 363.425V363.425ZM4013.07 361.389C3992.59 357.315 4005.39 369.536 4013.07 361.389V361.389ZM3833.81 367.499C3831.25 367.499 3836.37 369.536 3833.81 367.499V367.499ZM3651.99 371.572C3651.99 369.536 3657.11 369.536 3659.67 367.499C3659.67 371.572 3654.55 369.536 3651.99 371.572ZM3716.01 371.572C3716.01 369.536 3718.57 371.572 3716.01 371.572V371.572ZM3785.15 367.499H3790.27V373.609H3785.15V367.499ZM3680.16 373.609C3685.28 371.572 3685.28 375.646 3685.28 377.683C3682.72 377.683 3682.72 379.719 3682.72 379.719C3680.16 379.719 3680.16 375.646 3680.16 373.609ZM3692.96 375.646C3690.4 375.646 3695.52 377.683 3692.96 375.646V375.646ZM3662.23 375.646C3646.86 381.756 3672.47 381.756 3662.23 375.646V375.646ZM3721.13 377.683C3718.57 373.609 3736.5 375.646 3728.81 379.719C3731.37 379.719 3721.13 377.683 3721.13 377.683ZM3577.72 379.719C3580.28 377.683 3585.4 377.683 3585.4 379.719C3582.84 383.793 3582.84 379.719 3577.72 379.719ZM3557.23 379.719C3554.67 379.719 3554.67 381.756 3554.67 383.793C3557.23 383.793 3557.23 381.756 3557.23 379.719ZM3618.69 383.793C3616.13 381.756 3621.26 383.793 3618.69 383.793V383.793ZM3598.21 385.83C3600.77 393.977 3605.89 375.646 3598.21 385.83V385.83ZM3695.52 387.866C3690.4 387.866 3687.84 383.793 3692.96 383.793C3695.52 383.793 3695.52 385.83 3695.52 387.866ZM3572.6 387.866C3572.6 385.83 3575.16 385.83 3577.72 385.83C3577.72 387.866 3575.16 387.866 3572.6 387.866ZM3616.13 387.866C3608.45 396.013 3626.38 381.756 3616.13 387.866V387.866ZM3680.16 387.866C3680.16 385.83 3682.72 385.83 3685.28 385.83C3685.28 387.866 3682.72 387.866 3680.16 387.866ZM3536.74 391.94C3534.18 389.903 3539.31 391.94 3536.74 391.94V391.94ZM3526.5 391.94H3536.74C3536.74 398.05 3523.94 402.124 3526.5 391.94ZM3984.9 404.16C3982.34 404.16 3987.46 406.197 3984.9 404.16V404.16ZM3874.78 1072.22C3872.22 1068.14 3887.59 1068.14 3882.47 1074.25H3877.35C3877.35 1072.22 3874.78 1072.22 3874.78 1072.22ZM3882.47 1080.36C3897.83 1074.25 3908.08 1094.62 3920.88 1100.73C3905.52 1106.84 3900.39 1080.36 3882.47 1080.36ZM3923.44 1108.88C3923.44 1112.95 3926 1114.99 3928.56 1117.03C3928.56 1112.95 3926 1110.92 3923.44 1108.88ZM3283.22 1326.81C3288.34 1324.77 3283.22 1322.74 3283.22 1326.81V1326.81ZM3280.65 1328.85C3280.65 1326.81 3280.65 1326.81 3283.22 1326.81C3283.22 1328.85 3283.22 1328.85 3280.65 1328.85ZM3280.65 1328.85C3275.53 1330.88 3280.65 1332.92 3280.65 1328.85V1328.85ZM3234.56 1361.44C3242.24 1367.55 3216.63 1387.91 3206.39 1394.02C3201.27 1402.17 3211.51 1408.28 3193.58 1406.24C3206.39 1389.95 3221.75 1377.73 3234.56 1361.44ZM3191.02 1410.32C3196.14 1412.35 3191.02 1414.39 3191.02 1416.43C3185.9 1414.39 3191.02 1412.35 3191.02 1410.32ZM3185.9 1418.47C3191.02 1420.5 3185.9 1424.58 3185.9 1426.61C3180.78 1424.58 3185.9 1422.54 3185.9 1418.47ZM3193.58 1428.65C3196.14 1418.47 3185.9 1428.65 3193.58 1428.65V1428.65ZM3923.44 1467.35C3926 1477.53 3926 1459.2 3923.44 1467.35V1467.35ZM3908.08 1485.68C3908.08 1483.64 3910.64 1483.64 3913.2 1483.64C3913.2 1485.68 3910.64 1485.68 3908.08 1485.68ZM3155.17 1485.68C3160.29 1485.68 3160.29 1499.94 3152.61 1495.86C3150.05 1491.79 3155.17 1489.75 3155.17 1485.68ZM3859.42 1534.56C3861.98 1542.71 3867.1 1524.38 3859.42 1534.56V1534.56ZM3844.05 1565.11C3844.05 1563.07 3841.49 1556.96 3849.18 1559V1563.07C3846.61 1563.07 3846.61 1563.07 3846.61 1565.11H3844.05ZM3838.93 1569.19C3841.49 1569.19 3841.49 1567.15 3844.05 1565.11C3841.49 1565.11 3838.93 1567.15 3838.93 1569.19ZM3838.93 1569.19C3838.93 1575.3 3836.37 1579.37 3828.69 1581.41C3826.13 1571.22 3833.81 1571.22 3838.93 1569.19ZM3815.88 1593.63C3815.88 1589.55 3815.88 1587.52 3818.44 1585.48C3823.57 1585.48 3821.01 1591.59 3818.44 1593.63H3815.88ZM3815.88 1593.63C3800.52 1591.59 3813.32 1601.77 3815.88 1593.63V1593.63Z" fill="white"/>
<path d="M972.934 2307.68C894.619 2307.68 787.402 2270.97 787.402 2176.43C787.402 2111.55 837.748 2036.29 966.408 2036.29C1019.55 2036.29 1066.63 2049.26 1061.04 2062.24L1055.44 2075.96C1040.99 2111.18 1019.55 2063.35 939.837 2063.35C871.777 2063.35 834.484 2098.2 834.484 2154.56C834.484 2237.6 913.732 2275.05 982.257 2275.05C990.182 2275.05 1028.41 2270.23 1057.31 2255.77C1061.04 2253.92 1069.9 2261.33 1067.1 2264.67C1047.05 2287.65 985.986 2307.68 972.934 2307.68ZM1542.25 2307.68C1445.29 2307.68 1374.9 2250.21 1374.9 2173.09C1374.9 2098.57 1441.1 2036.29 1543.19 2036.29C1640.61 2036.29 1710.54 2093.75 1710.54 2170.5C1710.54 2245.39 1644.81 2307.68 1542.25 2307.68ZM1559.5 2285.06C1602.39 2285.06 1662.52 2263.19 1662.52 2189.78C1662.52 2113.03 1596.33 2058.9 1526.41 2058.9C1483.05 2058.9 1423.38 2080.78 1423.38 2153.81C1423.38 2231.3 1489.11 2285.06 1559.5 2285.06ZM2010.89 2302.48C2006.22 2302.86 2004.36 2291.36 2008.09 2290.62C2035.59 2285.06 2056.57 2281.72 2056.57 2254.29V2088.19C2056.57 2063.35 2037.46 2057.05 2016.95 2052.97C2013.22 2052.23 2015.08 2041.11 2019.74 2041.48C2053.77 2043.7 2103.65 2043.7 2138.15 2043.7C2180.57 2043.7 2212.27 2042.22 2249.09 2041.48C2259.81 2041.48 2259.81 2047.41 2257.48 2055.57L2245.83 2090.79C2244.43 2095.61 2233.24 2095.61 2231.38 2090.79C2224.85 2073.36 2209.94 2061.13 2150.73 2061.13C2115.77 2061.13 2105.05 2067.8 2105.05 2088.19V2153.44C2105.05 2163.08 2111.11 2164.94 2120.43 2164.94H2129.29C2170.78 2164.94 2202.01 2162.71 2222.52 2147.14C2226.72 2143.8 2236.51 2144.55 2232.78 2151.59L2205.27 2198.3C2202.01 2204.61 2195.48 2203.87 2190.36 2198.3C2179.17 2186.81 2154.93 2182.36 2125.56 2182.36H2120.43C2111.11 2182.36 2105.05 2184.22 2105.05 2193.86V2254.29C2105.05 2281.72 2127.43 2284.69 2164.72 2290.62C2168.91 2291.36 2166.58 2302.86 2161.92 2302.48C2131.15 2300.26 2105.05 2300.26 2080.81 2300.26C2056.57 2300.26 2033.26 2300.63 2010.89 2302.48ZM2554.57 2302.48C2549.91 2302.86 2548.04 2291.36 2551.77 2290.62C2579.27 2285.06 2600.25 2281.72 2600.25 2254.29V2088.19C2600.25 2063.35 2581.14 2057.05 2560.63 2052.97C2556.9 2052.23 2558.76 2041.11 2563.42 2041.48C2597.45 2043.7 2647.33 2043.7 2681.83 2043.7C2724.25 2043.7 2755.95 2042.22 2792.77 2041.48C2803.5 2041.48 2803.5 2047.41 2801.17 2055.57L2789.51 2090.79C2788.11 2095.61 2776.93 2095.61 2775.06 2090.79C2768.53 2073.36 2753.62 2061.13 2694.41 2061.13C2659.45 2061.13 2648.73 2067.8 2648.73 2088.19V2153.44C2648.73 2163.08 2654.79 2164.94 2664.11 2164.94H2672.97C2714.46 2164.94 2745.69 2162.71 2766.2 2147.14C2770.4 2143.8 2780.19 2144.55 2776.46 2151.59L2748.96 2198.3C2745.69 2204.61 2739.17 2203.87 2734.04 2198.3C2722.85 2186.81 2698.61 2182.36 2669.24 2182.36H2664.11C2654.79 2182.36 2648.73 2184.22 2648.73 2193.86V2254.29C2648.73 2281.72 2671.11 2284.69 2708.4 2290.62C2712.6 2291.36 2710.26 2302.86 2705.6 2302.48C2674.84 2300.26 2648.73 2300.26 2624.49 2300.26C2600.25 2300.26 2576.94 2300.63 2554.57 2302.48ZM3098.25 2302.48C3093.59 2302.86 3091.72 2291.36 3095.45 2290.62C3122.96 2285.06 3143.93 2281.72 3143.93 2254.29V2088.19C3143.93 2063.35 3124.82 2057.05 3104.31 2052.97C3100.58 2052.23 3102.44 2041.11 3107.11 2041.48C3141.14 2043.7 3191.01 2043.7 3225.51 2043.7C3267.93 2043.7 3299.63 2042.22 3336.46 2041.48C3347.18 2041.48 3347.18 2047.41 3344.85 2055.57L3333.19 2090.79C3331.79 2095.61 3320.61 2095.61 3318.74 2090.79C3312.22 2073.36 3297.3 2061.13 3238.1 2061.13C3203.14 2061.13 3192.41 2067.8 3192.41 2088.19V2149.74C3192.41 2159.38 3198.47 2161.23 3207.8 2161.23H3216.65C3258.14 2161.23 3289.37 2159 3309.89 2143.43C3314.08 2140.1 3323.87 2140.84 3320.14 2147.88L3292.64 2194.6C3289.37 2200.9 3282.85 2200.16 3277.72 2194.6C3266.53 2183.1 3242.29 2178.65 3212.92 2178.65H3207.8C3198.47 2178.65 3192.41 2180.51 3192.41 2190.15V2254.29C3192.41 2275.79 3204.53 2282.84 3244.62 2282.84C3320.14 2282.84 3344.38 2258.74 3356.04 2243.17C3359.76 2238.35 3370.95 2239.46 3370.95 2246.5C3370.95 2266.89 3351.37 2302.11 3322.94 2302.48C3300.56 2301.37 3270.73 2300.26 3230.64 2300.26C3187.75 2300.26 3141.14 2299.15 3098.25 2302.48ZM3664.31 2302.48C3659.65 2302.86 3657.78 2291.36 3661.51 2290.62C3689.01 2285.06 3709.99 2281.72 3709.99 2254.29V2088.19C3709.99 2063.35 3690.88 2057.05 3670.37 2052.97C3666.64 2052.23 3668.5 2041.11 3673.16 2041.48C3707.19 2043.7 3757.07 2043.7 3791.57 2043.7C3833.99 2043.7 3865.69 2042.22 3902.51 2041.48C3913.24 2041.48 3913.24 2047.41 3910.91 2055.57L3899.25 2090.79C3897.85 2095.61 3886.66 2095.61 3884.8 2090.79C3878.27 2073.36 3863.36 2061.13 3804.15 2061.13C3769.19 2061.13 3758.47 2067.8 3758.47 2088.19V2149.74C3758.47 2159.38 3764.53 2161.23 3773.85 2161.23H3782.71C3824.2 2161.23 3855.43 2159 3875.94 2143.43C3880.14 2140.1 3889.93 2140.84 3886.2 2147.88L3858.7 2194.6C3855.43 2200.9 3848.91 2200.16 3843.78 2194.6C3832.59 2183.1 3808.35 2178.65 3778.98 2178.65H3773.85C3764.53 2178.65 3758.47 2180.51 3758.47 2190.15V2254.29C3758.47 2275.79 3770.59 2282.84 3810.68 2282.84C3886.2 2282.84 3910.44 2258.74 3922.09 2243.17C3925.82 2238.35 3937.01 2239.46 3937.01 2246.5C3937.01 2266.89 3917.43 2302.11 3889 2302.48C3866.62 2301.37 3836.79 2300.26 3796.7 2300.26C3753.81 2300.26 3707.19 2299.15 3664.31 2302.48Z" fill="white"/>
</svg>
